<?xml version="1.0" encoding="UTF-8"?>
<svg width="380" height="242.6" version="1.1" viewBox="0 0 380 242.6" xmlns="http://www.w3.org/2000/svg">
<title>JR East logo</title>
 <path d="m40 105h40.84v49.74c0 11.14 27.83 11.52 34.14 11.52 6.32 0 41.58-0.383 41.58-14.5v-111.7h151.4c27.1 0 31.96 38.66 31.96 48.63 0 9.511-4.487 51.97-29.73 51.97h-15.75l45.51 57.3h-51.09l-74.02-92.94h76.78c8.9 0 9.292-12.25 9.292-14.84 0-2.608-0.3918-13.38-8.928-13.38h-95.38v82.43c0 36.36-57.18 43.43-78.7 43.43-29.71 0-77.96-10-77.96-40.83v-56.81" fill="#188847"/>
</svg>
